<mxfile host="65bd71144e" pages="3">
    <diagram name="Standard" id="cOK6Yn9Cqrvdnbu7fczu">
        <mxGraphModel dx="2328" dy="931" grid="1" gridSize="10" guides="1" tooltips="1" connect="1" arrows="1" fold="1" page="1" pageScale="1" pageWidth="1100" pageHeight="850" math="0" shadow="0">
            <root>
                <mxCell id="_0J6o0tPFPfRbNGa3L3o-0"/>
                <mxCell id="_0J6o0tPFPfRbNGa3L3o-1" style="" parent="_0J6o0tPFPfRbNGa3L3o-0"/>
                <mxCell id="_0J6o0tPFPfRbNGa3L3o-2" value="Azure" style="rounded=0;whiteSpace=wrap;html=1;verticalAlign=top;align=left;" parent="_0J6o0tPFPfRbNGa3L3o-1" vertex="1">
                    <mxGeometry x="-80" y="55" width="1020" height="670" as="geometry"/>
                </mxCell>
                <mxCell id="_0J6o0tPFPfRbNGa3L3o-3" value="Edge VNet" style="rounded=0;whiteSpace=wrap;html=1;verticalAlign=top;align=left;dashed=1;" parent="_0J6o0tPFPfRbNGa3L3o-1" vertex="1">
                    <mxGeometry x="-50" y="100" width="800" height="600" as="geometry"/>
                </mxCell>
                <mxCell id="_0J6o0tPFPfRbNGa3L3o-4" value="" style="aspect=fixed;html=1;points=[];align=center;image;fontSize=12;image=img/lib/azure2/networking/Virtual_Networks.svg;" parent="_0J6o0tPFPfRbNGa3L3o-1" vertex="1">
                    <mxGeometry x="700" y="692.05" width="33.5" height="20" as="geometry"/>
                </mxCell>
                <mxCell id="_0J6o0tPFPfRbNGa3L3o-5" value="Zone 1" style="rounded=0;whiteSpace=wrap;html=1;align=center;verticalAlign=top;" parent="_0J6o0tPFPfRbNGa3L3o-1" vertex="1">
                    <mxGeometry x="80" y="140" width="170" height="530" as="geometry"/>
                </mxCell>
                <mxCell id="_0J6o0tPFPfRbNGa3L3o-6" value="Zone 2" style="rounded=0;whiteSpace=wrap;html=1;align=center;verticalAlign=top;" parent="_0J6o0tPFPfRbNGa3L3o-1" vertex="1">
                    <mxGeometry x="275" y="140" width="165" height="530" as="geometry"/>
                </mxCell>
                <mxCell id="_0J6o0tPFPfRbNGa3L3o-7" value="Zone 2" style="rounded=0;whiteSpace=wrap;html=1;align=center;verticalAlign=top;" parent="_0J6o0tPFPfRbNGa3L3o-1" vertex="1">
                    <mxGeometry x="465" y="140" width="165" height="530" as="geometry"/>
                </mxCell>
                <mxCell id="_0J6o0tPFPfRbNGa3L3o-31" value="Master subnet" style="rounded=0;whiteSpace=wrap;html=1;align=left;verticalAlign=top;" parent="_0J6o0tPFPfRbNGa3L3o-1" vertex="1">
                    <mxGeometry x="100" y="442.53" width="510" height="90" as="geometry"/>
                </mxCell>
                <mxCell id="RVBVVSGLNBDw1JezUozO-8" style="edgeStyle=none;rounded=0;html=1;exitX=0;exitY=0.5;exitDx=0;exitDy=0;entryX=1.002;entryY=0.643;entryDx=0;entryDy=0;entryPerimeter=0;" parent="_0J6o0tPFPfRbNGa3L3o-1" source="_0J6o0tPFPfRbNGa3L3o-69" edge="1" target="_0J6o0tPFPfRbNGa3L3o-3">
                    <mxGeometry relative="1" as="geometry">
                        <mxPoint x="750" y="527" as="targetPoint"/>
                    </mxGeometry>
                </mxCell>
                <mxCell id="_0J6o0tPFPfRbNGa3L3o-69" value="Cloud services" style="rounded=0;whiteSpace=wrap;html=1;align=left;verticalAlign=top;" parent="_0J6o0tPFPfRbNGa3L3o-1" vertex="1">
                    <mxGeometry x="780" y="285" width="120" height="402.05" as="geometry"/>
                </mxCell>
                <mxCell id="_0J6o0tPFPfRbNGa3L3o-70" value="Montoring" style="aspect=fixed;html=1;points=[];align=center;image;fontSize=12;image=img/lib/azure2/management_governance/Monitor.svg;" parent="_0J6o0tPFPfRbNGa3L3o-1" vertex="1">
                    <mxGeometry x="808" y="452.53" width="64" height="64" as="geometry"/>
                </mxCell>
                <mxCell id="_0J6o0tPFPfRbNGa3L3o-73" value="Key Vault" style="aspect=fixed;html=1;points=[];align=center;image;fontSize=12;image=img/lib/azure2/security/Key_Vaults.svg;" parent="_0J6o0tPFPfRbNGa3L3o-1" vertex="1">
                    <mxGeometry x="806" y="566.05" width="68" height="68" as="geometry"/>
                </mxCell>
                <mxCell id="_0J6o0tPFPfRbNGa3L3o-80" value="Public internet" style="rounded=0;whiteSpace=wrap;html=1;align=left;verticalAlign=top;" parent="_0J6o0tPFPfRbNGa3L3o-1" vertex="1">
                    <mxGeometry x="-300" y="157" width="120" height="180" as="geometry"/>
                </mxCell>
                <mxCell id="_0J6o0tPFPfRbNGa3L3o-81" value="Remote employee" style="aspect=fixed;perimeter=ellipsePerimeter;html=1;align=center;shadow=0;dashed=0;fontColor=#000000;labelBackgroundColor=#ffffff;fontSize=12;spacingTop=3;image;image=img/lib/ibm/users/user.svg;" parent="_0J6o0tPFPfRbNGa3L3o-1" vertex="1">
                    <mxGeometry x="-270" y="226.85" width="60" height="60" as="geometry"/>
                </mxCell>
                <mxCell id="yS7yQ-HohCVbsRGfz8Ns-1" value="Worker subnet" style="rounded=0;whiteSpace=wrap;html=1;align=left;verticalAlign=top;" parent="_0J6o0tPFPfRbNGa3L3o-1" vertex="1">
                    <mxGeometry x="100" y="562.58" width="510" height="90" as="geometry"/>
                </mxCell>
                <mxCell id="QBeX7DgfbEe83-1rXW4k-13" value="" style="endArrow=none;html=1;rounded=0;fontColor=#000000;startArrow=classic;startFill=1;" parent="_0J6o0tPFPfRbNGa3L3o-1" source="_0J6o0tPFPfRbNGa3L3o-81" target="QBeX7DgfbEe83-1rXW4k-12" edge="1">
                    <mxGeometry width="50" height="50" relative="1" as="geometry">
                        <mxPoint x="-157" y="139.8499999999999" as="sourcePoint"/>
                        <mxPoint x="210" y="139.84518203883454" as="targetPoint"/>
                    </mxGeometry>
                </mxCell>
                <mxCell id="QBeX7DgfbEe83-1rXW4k-41" value="Public IP" style="text;html=1;strokeColor=none;fillColor=none;align=center;verticalAlign=middle;whiteSpace=wrap;rounded=0;" parent="_0J6o0tPFPfRbNGa3L3o-1" vertex="1">
                    <mxGeometry x="-160" y="196.85" width="60" height="30" as="geometry"/>
                </mxCell>
                <mxCell id="RVBVVSGLNBDw1JezUozO-5" value="Ingress subnet" style="rounded=0;whiteSpace=wrap;html=1;align=left;verticalAlign=top;" parent="_0J6o0tPFPfRbNGa3L3o-1" vertex="1">
                    <mxGeometry x="98.75" y="220" width="512.5" height="90" as="geometry"/>
                </mxCell>
                <mxCell id="_0J6o0tPFPfRbNGa3L3o-10" value="VPN Server" style="aspect=fixed;html=1;points=[];align=center;image;fontSize=12;image=img/lib/azure2/networking/Virtual_Network_Gateways.svg;labelPosition=center;verticalLabelPosition=bottom;verticalAlign=top;" parent="_0J6o0tPFPfRbNGa3L3o-1" vertex="1">
                    <mxGeometry x="210" y="238.64999999999998" width="30" height="39.81" as="geometry"/>
                </mxCell>
                <mxCell id="QBeX7DgfbEe83-1rXW4k-12" value="" style="aspect=fixed;html=1;points=[];align=center;image;fontSize=12;image=img/lib/azure2/networking/Public_IP_Addresses.svg;" parent="_0J6o0tPFPfRbNGa3L3o-1" vertex="1">
                    <mxGeometry x="-110" y="243.56000000000003" width="37.5" height="30" as="geometry"/>
                </mxCell>
                <mxCell id="_0J6o0tPFPfRbNGa3L3o-82" value="" style="endArrow=classic;html=1;rounded=0;fontColor=#000000;startArrow=none;startFill=1;" parent="_0J6o0tPFPfRbNGa3L3o-1" source="QBeX7DgfbEe83-1rXW4k-12" target="_0J6o0tPFPfRbNGa3L3o-10" edge="1">
                    <mxGeometry width="50" height="50" relative="1" as="geometry">
                        <mxPoint x="10" y="380" as="sourcePoint"/>
                        <mxPoint x="60" y="330" as="targetPoint"/>
                    </mxGeometry>
                </mxCell>
                <mxCell id="L_ruYcqznSnnLvaj0bLe-20" value="" style="aspect=fixed;html=1;points=[];align=center;image;fontSize=12;image=img/lib/azure2/networking/Network_Security_Groups.svg;" vertex="1" parent="_0J6o0tPFPfRbNGa3L3o-1">
                    <mxGeometry x="580" y="208.36" width="31" height="37.64" as="geometry"/>
                </mxCell>
                <mxCell id="QBeX7DgfbEe83-1rXW4k-20" value="Modules" parent="_0J6o0tPFPfRbNGa3L3o-0" visible="0"/>
                <mxCell id="QBeX7DgfbEe83-1rXW4k-21" value="azure-resource-group" style="rounded=0;whiteSpace=wrap;html=1;fillColor=#dae8fc;strokeColor=none;gradientColor=none;glass=1;fontColor=#FF0000;" parent="QBeX7DgfbEe83-1rXW4k-20" vertex="1">
                    <mxGeometry x="80" y="-10" width="260" height="40" as="geometry"/>
                </mxCell>
                <mxCell id="QBeX7DgfbEe83-1rXW4k-22" value="azure-vnet-subnet" style="rounded=0;whiteSpace=wrap;html=1;fillColor=#dae8fc;strokeColor=none;gradientColor=none;glass=1;fontColor=#FF0000;" parent="QBeX7DgfbEe83-1rXW4k-20" vertex="1">
                    <mxGeometry x="200" y="80" width="260" height="40" as="geometry"/>
                </mxCell>
                <mxCell id="QBeX7DgfbEe83-1rXW4k-24" value="azure-vnet-subnet" style="rounded=0;whiteSpace=wrap;html=1;fillColor=#dae8fc;strokeColor=none;gradientColor=none;glass=1;fontColor=#FF0000;" parent="QBeX7DgfbEe83-1rXW4k-20" vertex="1">
                    <mxGeometry x="210" y="310" width="260" height="40" as="geometry"/>
                </mxCell>
                <mxCell id="QBeX7DgfbEe83-1rXW4k-25" value="azure-vnet-subnet" style="rounded=0;whiteSpace=wrap;html=1;fillColor=#dae8fc;strokeColor=none;gradientColor=none;glass=1;fontColor=#FF0000;" parent="QBeX7DgfbEe83-1rXW4k-20" vertex="1">
                    <mxGeometry x="210" y="420" width="260" height="40" as="geometry"/>
                </mxCell>
                <mxCell id="QBeX7DgfbEe83-1rXW4k-26" value="azure-vnet-subnet" style="rounded=0;whiteSpace=wrap;html=1;fillColor=#dae8fc;strokeColor=none;gradientColor=none;glass=1;fontColor=#FF0000;" parent="QBeX7DgfbEe83-1rXW4k-20" vertex="1">
                    <mxGeometry x="210" y="550" width="260" height="40" as="geometry"/>
                </mxCell>
                <mxCell id="QBeX7DgfbEe83-1rXW4k-27" value="azure-lb" style="rounded=0;whiteSpace=wrap;html=1;fillColor=#dae8fc;strokeColor=none;gradientColor=none;glass=1;fontColor=#FF0000;" parent="QBeX7DgfbEe83-1rXW4k-20" vertex="1">
                    <mxGeometry x="660" y="350" width="110" height="40" as="geometry"/>
                </mxCell>
                <mxCell id="QBeX7DgfbEe83-1rXW4k-29" value="azure-vm" style="rounded=0;whiteSpace=wrap;html=1;fillColor=#dae8fc;strokeColor=none;gradientColor=none;glass=1;fontColor=#FF0000;" parent="QBeX7DgfbEe83-1rXW4k-20" vertex="1">
                    <mxGeometry x="275" y="350" width="110" height="40" as="geometry"/>
                </mxCell>
                <mxCell id="QBeX7DgfbEe83-1rXW4k-30" value="azure-bastion" style="rounded=0;whiteSpace=wrap;html=1;fillColor=#dae8fc;strokeColor=none;gradientColor=none;glass=1;fontColor=#FF0000;" parent="QBeX7DgfbEe83-1rXW4k-20" vertex="1">
                    <mxGeometry x="300" y="240" width="110" height="40" as="geometry"/>
                </mxCell>
                <mxCell id="QBeX7DgfbEe83-1rXW4k-31" value="azure-vpn-gateway" style="rounded=0;whiteSpace=wrap;html=1;fillColor=#dae8fc;strokeColor=none;gradientColor=none;glass=1;fontColor=#FF0000;" parent="QBeX7DgfbEe83-1rXW4k-20" vertex="1">
                    <mxGeometry x="210" y="130" width="260" height="40" as="geometry"/>
                </mxCell>
                <mxCell id="QBeX7DgfbEe83-1rXW4k-32" value="azure-ocp-ipi" style="rounded=0;whiteSpace=wrap;html=1;fillColor=#dae8fc;strokeColor=none;gradientColor=none;glass=1;fontColor=#FF0000;" parent="QBeX7DgfbEe83-1rXW4k-20" vertex="1">
                    <mxGeometry x="210" y="600" width="260" height="40" as="geometry"/>
                </mxCell>
                <mxCell id="QBeX7DgfbEe83-1rXW4k-33" value="azure-ocp-ipi" style="rounded=0;whiteSpace=wrap;html=1;fillColor=#dae8fc;strokeColor=none;gradientColor=none;glass=1;fontColor=#FF0000;" parent="QBeX7DgfbEe83-1rXW4k-20" vertex="1">
                    <mxGeometry x="-20" y="370" width="120" height="80" as="geometry"/>
                </mxCell>
                <mxCell id="QBeX7DgfbEe83-1rXW4k-34" value="azure-ssh-keys" style="rounded=0;whiteSpace=wrap;html=1;fillColor=#dae8fc;strokeColor=none;gradientColor=none;glass=1;fontColor=#FF0000;" parent="QBeX7DgfbEe83-1rXW4k-20" vertex="1">
                    <mxGeometry x="770" y="570" width="120" height="80" as="geometry"/>
                </mxCell>
                <mxCell id="QBeX7DgfbEe83-1rXW4k-35" value="azure-storage-blob" style="rounded=0;whiteSpace=wrap;html=1;fillColor=#dae8fc;strokeColor=none;gradientColor=none;glass=1;fontColor=#FF0000;" parent="QBeX7DgfbEe83-1rXW4k-20" vertex="1">
                    <mxGeometry x="770" y="430" width="120" height="80" as="geometry"/>
                </mxCell>
                <mxCell id="QBeX7DgfbEe83-1rXW4k-38" value="azure-vnet" style="rounded=0;whiteSpace=wrap;html=1;fillColor=#dae8fc;strokeColor=none;gradientColor=none;glass=1;fontColor=#FF0000;" parent="QBeX7DgfbEe83-1rXW4k-20" vertex="1">
                    <mxGeometry x="400" y="-10" width="260" height="40" as="geometry"/>
                </mxCell>
                <mxCell id="QBeX7DgfbEe83-1rXW4k-44" value="azure--waf" style="rounded=0;whiteSpace=wrap;html=1;fillColor=#dae8fc;strokeColor=none;gradientColor=none;glass=1;fontColor=#FF0000;" parent="QBeX7DgfbEe83-1rXW4k-20" vertex="1">
                    <mxGeometry x="-150" y="470" width="120" height="80" as="geometry"/>
                </mxCell>
                <mxCell id="L_ruYcqznSnnLvaj0bLe-1" value="ARO BOM" parent="_0J6o0tPFPfRbNGa3L3o-0"/>
                <mxCell id="L_ruYcqznSnnLvaj0bLe-4" value="" style="sketch=0;aspect=fixed;html=1;points=[];align=center;image;fontSize=12;image=img/lib/mscae/OpenShift.svg;" vertex="1" parent="L_ruYcqznSnnLvaj0bLe-1">
                    <mxGeometry x="110" y="472.53" width="50" height="46" as="geometry"/>
                </mxCell>
                <mxCell id="L_ruYcqznSnnLvaj0bLe-5" value="" style="sketch=0;aspect=fixed;html=1;points=[];align=center;image;fontSize=12;image=img/lib/mscae/OpenShift.svg;" vertex="1" parent="L_ruYcqznSnnLvaj0bLe-1">
                    <mxGeometry x="170" y="464.48" width="50" height="46" as="geometry"/>
                </mxCell>
                <mxCell id="L_ruYcqznSnnLvaj0bLe-6" value="" style="sketch=0;aspect=fixed;html=1;points=[];align=center;image;fontSize=12;image=img/lib/mscae/OpenShift.svg;" vertex="1" parent="L_ruYcqznSnnLvaj0bLe-1">
                    <mxGeometry x="302.5" y="477.48" width="50" height="46" as="geometry"/>
                </mxCell>
                <mxCell id="L_ruYcqznSnnLvaj0bLe-7" value="" style="sketch=0;aspect=fixed;html=1;points=[];align=center;image;fontSize=12;image=img/lib/mscae/OpenShift.svg;" vertex="1" parent="L_ruYcqznSnnLvaj0bLe-1">
                    <mxGeometry x="362.5" y="469.43000000000006" width="50" height="46" as="geometry"/>
                </mxCell>
                <mxCell id="L_ruYcqznSnnLvaj0bLe-8" value="" style="sketch=0;aspect=fixed;html=1;points=[];align=center;image;fontSize=12;image=img/lib/mscae/OpenShift.svg;" vertex="1" parent="L_ruYcqznSnnLvaj0bLe-1">
                    <mxGeometry x="490" y="477.48" width="50" height="46" as="geometry"/>
                </mxCell>
                <mxCell id="L_ruYcqznSnnLvaj0bLe-9" value="" style="sketch=0;aspect=fixed;html=1;points=[];align=center;image;fontSize=12;image=img/lib/mscae/OpenShift.svg;" vertex="1" parent="L_ruYcqznSnnLvaj0bLe-1">
                    <mxGeometry x="550" y="469.43000000000006" width="50" height="46" as="geometry"/>
                </mxCell>
                <mxCell id="L_ruYcqznSnnLvaj0bLe-10" value="" style="sketch=0;aspect=fixed;html=1;points=[];align=center;image;fontSize=12;image=img/lib/mscae/OpenShift.svg;" vertex="1" parent="L_ruYcqznSnnLvaj0bLe-1">
                    <mxGeometry x="110" y="591.63" width="50" height="46" as="geometry"/>
                </mxCell>
                <mxCell id="L_ruYcqznSnnLvaj0bLe-11" value="" style="sketch=0;aspect=fixed;html=1;points=[];align=center;image;fontSize=12;image=img/lib/mscae/OpenShift.svg;" vertex="1" parent="L_ruYcqznSnnLvaj0bLe-1">
                    <mxGeometry x="170" y="583.58" width="50" height="46" as="geometry"/>
                </mxCell>
                <mxCell id="L_ruYcqznSnnLvaj0bLe-12" value="" style="sketch=0;aspect=fixed;html=1;points=[];align=center;image;fontSize=12;image=img/lib/mscae/OpenShift.svg;" vertex="1" parent="L_ruYcqznSnnLvaj0bLe-1">
                    <mxGeometry x="302.5" y="596.58" width="50" height="46" as="geometry"/>
                </mxCell>
                <mxCell id="L_ruYcqznSnnLvaj0bLe-13" value="" style="sketch=0;aspect=fixed;html=1;points=[];align=center;image;fontSize=12;image=img/lib/mscae/OpenShift.svg;" vertex="1" parent="L_ruYcqznSnnLvaj0bLe-1">
                    <mxGeometry x="362.5" y="588.5300000000001" width="50" height="46" as="geometry"/>
                </mxCell>
                <mxCell id="L_ruYcqznSnnLvaj0bLe-14" value="" style="sketch=0;aspect=fixed;html=1;points=[];align=center;image;fontSize=12;image=img/lib/mscae/OpenShift.svg;" vertex="1" parent="L_ruYcqznSnnLvaj0bLe-1">
                    <mxGeometry x="490" y="596.58" width="50" height="46" as="geometry"/>
                </mxCell>
                <mxCell id="L_ruYcqznSnnLvaj0bLe-15" value="" style="sketch=0;aspect=fixed;html=1;points=[];align=center;image;fontSize=12;image=img/lib/mscae/OpenShift.svg;" vertex="1" parent="L_ruYcqznSnnLvaj0bLe-1">
                    <mxGeometry x="550" y="588.5300000000001" width="50" height="46" as="geometry"/>
                </mxCell>
                <mxCell id="L_ruYcqznSnnLvaj0bLe-16" value="" style="edgeStyle=none;html=1;entryX=0;entryY=0.5;entryDx=0;entryDy=0;" edge="1" parent="L_ruYcqznSnnLvaj0bLe-1" source="L_ruYcqznSnnLvaj0bLe-17">
                    <mxGeometry relative="1" as="geometry">
                        <mxPoint x="100" y="487.53" as="targetPoint"/>
                    </mxGeometry>
                </mxCell>
                <mxCell id="L_ruYcqznSnnLvaj0bLe-17" value="&lt;br&gt;Internal&lt;br&gt;Load&lt;br&gt;Balancer" style="aspect=fixed;html=1;points=[];align=center;image;fontSize=12;image=img/lib/azure2/networking/Load_Balancers.svg;fontColor=#000000;labelPosition=center;verticalLabelPosition=top;verticalAlign=bottom;" vertex="1" parent="L_ruYcqznSnnLvaj0bLe-1">
                    <mxGeometry y="460.26" width="52" height="52" as="geometry"/>
                </mxCell>
                <mxCell id="L_ruYcqznSnnLvaj0bLe-18" value="" style="endArrow=classic;html=1;rounded=0;fontColor=#000000;exitX=0.449;exitY=1.006;exitDx=0;exitDy=0;exitPerimeter=0;entryX=0;entryY=0.5;entryDx=0;entryDy=0;" edge="1" parent="L_ruYcqznSnnLvaj0bLe-1" source="L_ruYcqznSnnLvaj0bLe-17">
                    <mxGeometry width="50" height="50" relative="1" as="geometry">
                        <mxPoint x="26.479262672811046" y="423.9999999999998" as="sourcePoint"/>
                        <mxPoint x="100" y="607.5799999999999" as="targetPoint"/>
                        <Array as="points">
                            <mxPoint x="43" y="606"/>
                        </Array>
                    </mxGeometry>
                </mxCell>
                <mxCell id="L_ruYcqznSnnLvaj0bLe-24" value="ARO" style="sketch=0;points=[[0,0,0],[0.25,0,0],[0.5,0,0],[0.75,0,0],[1,0,0],[0,1,0],[0.25,1,0],[0.5,1,0],[0.75,1,0],[1,1,0],[0,0.25,0],[0,0.5,0],[0,0.75,0],[1,0.25,0],[1,0.5,0],[1,0.75,0]];outlineConnect=0;fontColor=#232F3E;gradientColor=#F78E04;gradientDirection=north;fillColor=#D05C17;strokeColor=#ffffff;dashed=0;verticalLabelPosition=bottom;verticalAlign=top;align=center;html=1;fontSize=12;fontStyle=0;aspect=fixed;shape=mxgraph.aws4.resourceIcon;resIcon=mxgraph.aws4.red_hat_openshift;" vertex="1" parent="L_ruYcqznSnnLvaj0bLe-1">
                    <mxGeometry x="810" y="337" width="64" height="64" as="geometry"/>
                </mxCell>
                <mxCell id="L_ruYcqznSnnLvaj0bLe-25" value="" style="aspect=fixed;html=1;points=[];align=center;image;fontSize=12;image=img/lib/azure2/networking/Network_Security_Groups.svg;" vertex="1" parent="L_ruYcqznSnnLvaj0bLe-1">
                    <mxGeometry x="578.25" y="425" width="31" height="37.64" as="geometry"/>
                </mxCell>
                <mxCell id="L_ruYcqznSnnLvaj0bLe-26" value="" style="aspect=fixed;html=1;points=[];align=center;image;fontSize=12;image=img/lib/azure2/networking/Network_Security_Groups.svg;" vertex="1" parent="L_ruYcqznSnnLvaj0bLe-1">
                    <mxGeometry x="578.25" y="550" width="31" height="37.64" as="geometry"/>
                </mxCell>
            </root>
        </mxGraphModel>
    </diagram>
    <diagram name="QuickStart" id="T9qopT3PJjsK0zyHMoS0">
        <mxGraphModel dx="1228" dy="931" grid="1" gridSize="10" guides="1" tooltips="1" connect="1" arrows="1" fold="1" page="1" pageScale="1" pageWidth="1100" pageHeight="850" math="0" shadow="0">
            <root>
                <mxCell id="gHoLxsW__RnX77sjm0al-0"/>
                <mxCell id="gHoLxsW__RnX77sjm0al-1" parent="gHoLxsW__RnX77sjm0al-0"/>
                <mxCell id="gHoLxsW__RnX77sjm0al-2" value="Azure" style="rounded=0;whiteSpace=wrap;html=1;verticalAlign=top;align=left;" parent="gHoLxsW__RnX77sjm0al-1" vertex="1">
                    <mxGeometry x="140" y="30" width="1040" height="500" as="geometry"/>
                </mxCell>
                <mxCell id="gHoLxsW__RnX77sjm0al-3" value="VNet" style="rounded=0;whiteSpace=wrap;html=1;verticalAlign=top;align=left;dashed=1;" parent="gHoLxsW__RnX77sjm0al-1" vertex="1">
                    <mxGeometry x="170" y="60" width="760" height="440" as="geometry"/>
                </mxCell>
                <mxCell id="gHoLxsW__RnX77sjm0al-4" value="" style="aspect=fixed;html=1;points=[];align=center;image;fontSize=12;image=img/lib/azure2/networking/Virtual_Networks.svg;" parent="gHoLxsW__RnX77sjm0al-1" vertex="1">
                    <mxGeometry x="210" y="49.99999999999994" width="33.5" height="20" as="geometry"/>
                </mxCell>
                <mxCell id="gHoLxsW__RnX77sjm0al-5" value="Zone 1" style="rounded=0;whiteSpace=wrap;html=1;align=center;verticalAlign=top;" parent="gHoLxsW__RnX77sjm0al-1" vertex="1">
                    <mxGeometry x="260" y="110" width="170" height="310" as="geometry"/>
                </mxCell>
                <mxCell id="gHoLxsW__RnX77sjm0al-6" value="Zone 2" style="rounded=0;whiteSpace=wrap;html=1;align=center;verticalAlign=top;" parent="gHoLxsW__RnX77sjm0al-1" vertex="1">
                    <mxGeometry x="462.5" y="110" width="165" height="310" as="geometry"/>
                </mxCell>
                <mxCell id="gHoLxsW__RnX77sjm0al-7" value="Zone 3" style="rounded=0;whiteSpace=wrap;html=1;align=center;verticalAlign=top;" parent="gHoLxsW__RnX77sjm0al-1" vertex="1">
                    <mxGeometry x="660" y="110" width="165" height="310" as="geometry"/>
                </mxCell>
                <mxCell id="gHoLxsW__RnX77sjm0al-25" value="" style="rounded=0;whiteSpace=wrap;html=1;align=left;verticalAlign=top;dashed=1;" parent="gHoLxsW__RnX77sjm0al-1" vertex="1">
                    <mxGeometry x="280" y="157.71" width="530" height="244.57" as="geometry"/>
                </mxCell>
                <mxCell id="gHoLxsW__RnX77sjm0al-26" value="Worker subnet" style="rounded=0;whiteSpace=wrap;html=1;align=left;verticalAlign=top;" parent="gHoLxsW__RnX77sjm0al-1" vertex="1">
                    <mxGeometry x="290" y="178.05" width="500" height="80" as="geometry"/>
                </mxCell>
                <mxCell id="gHoLxsW__RnX77sjm0al-31" value="" style="sketch=0;aspect=fixed;html=1;points=[];align=center;image;fontSize=12;image=img/lib/mscae/OpenShift.svg;" parent="gHoLxsW__RnX77sjm0al-1" vertex="1">
                    <mxGeometry x="360" y="200.48" width="50" height="46" as="geometry"/>
                </mxCell>
                <mxCell id="gHoLxsW__RnX77sjm0al-34" value="" style="sketch=0;aspect=fixed;html=1;points=[];align=center;image;fontSize=12;image=img/lib/mscae/OpenShift.svg;" parent="gHoLxsW__RnX77sjm0al-1" vertex="1">
                    <mxGeometry x="550" y="198.00000000000003" width="50" height="46" as="geometry"/>
                </mxCell>
                <mxCell id="gHoLxsW__RnX77sjm0al-37" value="" style="sketch=0;aspect=fixed;html=1;points=[];align=center;image;fontSize=12;image=img/lib/mscae/OpenShift.svg;" parent="gHoLxsW__RnX77sjm0al-1" vertex="1">
                    <mxGeometry x="717.5" y="200.48000000000002" width="50" height="46" as="geometry"/>
                </mxCell>
                <mxCell id="gHoLxsW__RnX77sjm0al-42" value="Cloud services" style="rounded=0;whiteSpace=wrap;html=1;align=left;verticalAlign=top;" parent="gHoLxsW__RnX77sjm0al-1" vertex="1">
                    <mxGeometry x="962" y="60" width="120" height="443" as="geometry"/>
                </mxCell>
                <mxCell id="gHoLxsW__RnX77sjm0al-43" value="Montoring" style="aspect=fixed;html=1;points=[];align=center;image;fontSize=12;image=img/lib/azure2/management_governance/Monitor.svg;" parent="gHoLxsW__RnX77sjm0al-1" vertex="1">
                    <mxGeometry x="990" y="202" width="64" height="64" as="geometry"/>
                </mxCell>
                <mxCell id="gHoLxsW__RnX77sjm0al-44" value="Log Analytics" style="aspect=fixed;html=1;points=[];align=center;image;fontSize=12;image=img/lib/azure2/analytics/Log_Analytics_Workspaces.svg;" parent="gHoLxsW__RnX77sjm0al-1" vertex="1">
                    <mxGeometry x="991" y="301.50000000000006" width="64" height="64" as="geometry"/>
                </mxCell>
                <mxCell id="gHoLxsW__RnX77sjm0al-45" value="Blob Storage" style="aspect=fixed;html=1;points=[];align=center;image;fontSize=12;image=img/lib/azure2/general/Blob_Block.svg;" parent="gHoLxsW__RnX77sjm0al-1" vertex="1">
                    <mxGeometry x="990" y="410" width="65" height="52" as="geometry"/>
                </mxCell>
                <mxCell id="gHoLxsW__RnX77sjm0al-73" value="" style="endArrow=oval;startArrow=oval;html=1;rounded=0;startFill=1;endFill=1;jumpStyle=arc;entryX=-0.017;entryY=0.641;entryDx=0;entryDy=0;entryPerimeter=0;" parent="gHoLxsW__RnX77sjm0al-1" source="HqWNgeM-9TBCjFqYgfjL-1" target="gHoLxsW__RnX77sjm0al-42" edge="1">
                    <mxGeometry width="50" height="50" relative="1" as="geometry">
                        <mxPoint x="810" y="343.9999999999998" as="sourcePoint"/>
                        <mxPoint x="840" y="428" as="targetPoint"/>
                    </mxGeometry>
                </mxCell>
                <mxCell id="HqWNgeM-9TBCjFqYgfjL-1" value="Master subnet" style="rounded=0;whiteSpace=wrap;html=1;align=left;verticalAlign=top;" parent="gHoLxsW__RnX77sjm0al-1" vertex="1">
                    <mxGeometry x="290" y="304" width="500" height="80" as="geometry"/>
                </mxCell>
                <mxCell id="HqWNgeM-9TBCjFqYgfjL-2" value="" style="aspect=fixed;html=1;points=[];align=center;image;fontSize=12;image=img/lib/azure2/networking/Load_Balancers.svg;" parent="gHoLxsW__RnX77sjm0al-1" vertex="1">
                    <mxGeometry x="160" y="244" width="72" height="72" as="geometry"/>
                </mxCell>
                <mxCell id="HqWNgeM-9TBCjFqYgfjL-3" value="" style="endArrow=none;html=1;entryX=-0.002;entryY=0.424;entryDx=0;entryDy=0;entryPerimeter=0;rounded=0;edgeStyle=orthogonalEdgeStyle;" parent="gHoLxsW__RnX77sjm0al-1" source="HqWNgeM-9TBCjFqYgfjL-2" target="gHoLxsW__RnX77sjm0al-26" edge="1">
                    <mxGeometry width="50" height="50" relative="1" as="geometry">
                        <mxPoint x="40" y="300" as="sourcePoint"/>
                        <mxPoint x="90" y="250" as="targetPoint"/>
                        <Array as="points">
                            <mxPoint x="250" y="280"/>
                            <mxPoint x="250" y="212"/>
                        </Array>
                    </mxGeometry>
                </mxCell>
                <mxCell id="HqWNgeM-9TBCjFqYgfjL-6" value="" style="endArrow=none;html=1;rounded=0;entryX=0;entryY=0.5;entryDx=0;entryDy=0;edgeStyle=orthogonalEdgeStyle;" parent="gHoLxsW__RnX77sjm0al-1" source="HqWNgeM-9TBCjFqYgfjL-2" target="HqWNgeM-9TBCjFqYgfjL-1" edge="1">
                    <mxGeometry width="50" height="50" relative="1" as="geometry">
                        <mxPoint x="30" y="420" as="sourcePoint"/>
                        <mxPoint x="80" y="370" as="targetPoint"/>
                        <Array as="points">
                            <mxPoint x="250" y="280"/>
                            <mxPoint x="250" y="344"/>
                        </Array>
                    </mxGeometry>
                </mxCell>
                <mxCell id="HqWNgeM-9TBCjFqYgfjL-7" value="" style="aspect=fixed;perimeter=ellipsePerimeter;html=1;align=center;shadow=0;dashed=0;spacingTop=3;image;image=img/lib/active_directory/internet_cloud.svg;" parent="gHoLxsW__RnX77sjm0al-1" vertex="1">
                    <mxGeometry x="30" y="266" width="50" height="31.5" as="geometry"/>
                </mxCell>
                <mxCell id="HqWNgeM-9TBCjFqYgfjL-8" value="Internet" style="text;strokeColor=none;fillColor=none;align=left;verticalAlign=middle;spacingLeft=4;spacingRight=4;overflow=hidden;points=[[0,0.5],[1,0.5]];portConstraint=eastwest;rotatable=0;" parent="gHoLxsW__RnX77sjm0al-1" vertex="1">
                    <mxGeometry x="30" y="297.5" width="80" height="30" as="geometry"/>
                </mxCell>
                <mxCell id="HqWNgeM-9TBCjFqYgfjL-9" value="" style="sketch=0;aspect=fixed;html=1;points=[];align=center;image;fontSize=12;image=img/lib/mscae/OpenShift.svg;" parent="gHoLxsW__RnX77sjm0al-1" vertex="1">
                    <mxGeometry x="360" y="327.5" width="50" height="46" as="geometry"/>
                </mxCell>
                <mxCell id="HqWNgeM-9TBCjFqYgfjL-10" value="" style="sketch=0;aspect=fixed;html=1;points=[];align=center;image;fontSize=12;image=img/lib/mscae/OpenShift.svg;" parent="gHoLxsW__RnX77sjm0al-1" vertex="1">
                    <mxGeometry x="550" y="327.5" width="50" height="46" as="geometry"/>
                </mxCell>
                <mxCell id="HqWNgeM-9TBCjFqYgfjL-11" value="" style="sketch=0;aspect=fixed;html=1;points=[];align=center;image;fontSize=12;image=img/lib/mscae/OpenShift.svg;" parent="gHoLxsW__RnX77sjm0al-1" vertex="1">
                    <mxGeometry x="717.5" y="327.5" width="50" height="46" as="geometry"/>
                </mxCell>
                <mxCell id="HqWNgeM-9TBCjFqYgfjL-12" value="" style="endArrow=none;html=1;rounded=0;" parent="gHoLxsW__RnX77sjm0al-1" source="HqWNgeM-9TBCjFqYgfjL-7" target="HqWNgeM-9TBCjFqYgfjL-2" edge="1">
                    <mxGeometry width="50" height="50" relative="1" as="geometry">
                        <mxPoint x="-100" y="220" as="sourcePoint"/>
                        <mxPoint x="-50" y="170" as="targetPoint"/>
                    </mxGeometry>
                </mxCell>
                <mxCell id="HqWNgeM-9TBCjFqYgfjL-13" value="Load&lt;br&gt;Balancer&lt;br&gt;(inbound / outbound)" style="text;html=1;strokeColor=none;fillColor=none;align=center;verticalAlign=middle;whiteSpace=wrap;rounded=0;" parent="gHoLxsW__RnX77sjm0al-1" vertex="1">
                    <mxGeometry x="170" y="329" width="60" height="30" as="geometry"/>
                </mxCell>
                <mxCell id="HqWNgeM-9TBCjFqYgfjL-14" value="Worker&lt;br&gt;Node" style="text;html=1;strokeColor=none;fillColor=none;align=center;verticalAlign=middle;whiteSpace=wrap;rounded=0;" parent="gHoLxsW__RnX77sjm0al-1" vertex="1">
                    <mxGeometry x="300" y="208.48" width="60" height="30" as="geometry"/>
                </mxCell>
                <mxCell id="HqWNgeM-9TBCjFqYgfjL-15" value="Worker&lt;br&gt;Node" style="text;html=1;strokeColor=none;fillColor=none;align=center;verticalAlign=middle;whiteSpace=wrap;rounded=0;" parent="gHoLxsW__RnX77sjm0al-1" vertex="1">
                    <mxGeometry x="490" y="208.48" width="60" height="30" as="geometry"/>
                </mxCell>
                <mxCell id="HqWNgeM-9TBCjFqYgfjL-16" value="Worker&lt;br&gt;Node" style="text;html=1;strokeColor=none;fillColor=none;align=center;verticalAlign=middle;whiteSpace=wrap;rounded=0;" parent="gHoLxsW__RnX77sjm0al-1" vertex="1">
                    <mxGeometry x="657.5" y="208.48" width="60" height="30" as="geometry"/>
                </mxCell>
                <mxCell id="HqWNgeM-9TBCjFqYgfjL-17" value="Master&lt;br&gt;Node" style="text;html=1;strokeColor=none;fillColor=none;align=center;verticalAlign=middle;whiteSpace=wrap;rounded=0;" parent="gHoLxsW__RnX77sjm0al-1" vertex="1">
                    <mxGeometry x="300" y="339.04999999999995" width="60" height="30" as="geometry"/>
                </mxCell>
                <mxCell id="HqWNgeM-9TBCjFqYgfjL-18" value="Master&lt;br&gt;Node" style="text;html=1;strokeColor=none;fillColor=none;align=center;verticalAlign=middle;whiteSpace=wrap;rounded=0;" parent="gHoLxsW__RnX77sjm0al-1" vertex="1">
                    <mxGeometry x="490" y="335.49999999999994" width="60" height="30" as="geometry"/>
                </mxCell>
                <mxCell id="HqWNgeM-9TBCjFqYgfjL-19" value="Master&lt;br&gt;Node" style="text;html=1;strokeColor=none;fillColor=none;align=center;verticalAlign=middle;whiteSpace=wrap;rounded=0;" parent="gHoLxsW__RnX77sjm0al-1" vertex="1">
                    <mxGeometry x="660" y="335.49999999999994" width="60" height="30" as="geometry"/>
                </mxCell>
                <mxCell id="HqWNgeM-9TBCjFqYgfjL-21" value="" style="aspect=fixed;html=1;points=[];align=center;image;fontSize=12;image=img/lib/azure2/networking/DNS_Zones.svg;" parent="gHoLxsW__RnX77sjm0al-1" vertex="1">
                    <mxGeometry x="990" y="100" width="64" height="64" as="geometry"/>
                </mxCell>
                <mxCell id="HqWNgeM-9TBCjFqYgfjL-22" value="DNS Zone" style="text;html=1;strokeColor=none;fillColor=none;align=center;verticalAlign=middle;whiteSpace=wrap;rounded=0;" parent="gHoLxsW__RnX77sjm0al-1" vertex="1">
                    <mxGeometry x="994" y="168" width="60" height="30" as="geometry"/>
                </mxCell>
                <mxCell id="0" value="" style="aspect=fixed;html=1;points=[];align=center;image;fontSize=12;image=img/lib/azure2/networking/Network_Security_Groups.svg;" parent="gHoLxsW__RnX77sjm0al-1" vertex="1">
                    <mxGeometry x="280" y="136.43" width="26" height="31.57" as="geometry"/>
                </mxCell>
                <mxCell id="2" value="Network Security Group" style="text;html=1;strokeColor=none;fillColor=none;align=center;verticalAlign=middle;whiteSpace=wrap;rounded=0;" parent="gHoLxsW__RnX77sjm0al-1" vertex="1">
                    <mxGeometry x="299" y="152.71" width="160" height="30" as="geometry"/>
                </mxCell>
                <mxCell id="2B-GKqpw6ZLaIOWPVPjV-3" style="edgeStyle=none;html=1;entryX=1;entryY=0.5;entryDx=0;entryDy=0;exitX=0.514;exitY=0.979;exitDx=0;exitDy=0;exitPerimeter=0;endArrow=none;endFill=0;rounded=0;" parent="gHoLxsW__RnX77sjm0al-1" source="2B-GKqpw6ZLaIOWPVPjV-2" target="HqWNgeM-9TBCjFqYgfjL-1" edge="1">
                    <mxGeometry relative="1" as="geometry">
                        <Array as="points">
                            <mxPoint x="888" y="330"/>
                        </Array>
                    </mxGeometry>
                </mxCell>
                <mxCell id="2B-GKqpw6ZLaIOWPVPjV-4" style="edgeStyle=none;rounded=0;html=1;entryX=1;entryY=0.5;entryDx=0;entryDy=0;endArrow=none;endFill=0;exitX=0.486;exitY=-0.021;exitDx=0;exitDy=0;exitPerimeter=0;" parent="gHoLxsW__RnX77sjm0al-1" source="2B-GKqpw6ZLaIOWPVPjV-2" target="gHoLxsW__RnX77sjm0al-26" edge="1">
                    <mxGeometry relative="1" as="geometry">
                        <Array as="points">
                            <mxPoint x="850" y="218"/>
                        </Array>
                    </mxGeometry>
                </mxCell>
                <mxCell id="2B-GKqpw6ZLaIOWPVPjV-2" value="" style="aspect=fixed;html=1;points=[];align=center;image;fontSize=12;image=img/lib/azure2/networking/Load_Balancers.svg;" parent="gHoLxsW__RnX77sjm0al-1" vertex="1">
                    <mxGeometry x="850" y="229.5" width="72" height="72" as="geometry"/>
                </mxCell>
                <mxCell id="2B-GKqpw6ZLaIOWPVPjV-5" value="Internal&lt;br&gt;Load&lt;br&gt;Balancer" style="text;html=1;strokeColor=none;fillColor=none;align=center;verticalAlign=middle;whiteSpace=wrap;rounded=0;" parent="gHoLxsW__RnX77sjm0al-1" vertex="1">
                    <mxGeometry x="856" y="172" width="60" height="30" as="geometry"/>
                </mxCell>
            </root>
        </mxGraphModel>
    </diagram>
    <diagram id="BHHM29xauYsLqlmP6PTI" name="Production">
        <mxGraphModel dx="2838" dy="2017" grid="1" gridSize="10" guides="1" tooltips="1" connect="1" arrows="1" fold="1" page="1" pageScale="1" pageWidth="1100" pageHeight="850" math="0" shadow="0">
            <root>
                <mxCell id="0"/>
                <mxCell id="1" parent="0"/>
                <mxCell id="h-mfdgKE4E6g7ha8phpf-2" value="Azure" style="rounded=0;whiteSpace=wrap;html=1;verticalAlign=top;align=left;" parent="1" vertex="1">
                    <mxGeometry x="-30" y="-30" width="970" height="1210" as="geometry"/>
                </mxCell>
                <mxCell id="h-mfdgKE4E6g7ha8phpf-3" value="Edge VNet" style="rounded=0;whiteSpace=wrap;html=1;verticalAlign=top;align=left;dashed=1;" parent="1" vertex="1">
                    <mxGeometry x="-10" y="10" width="770" height="430" as="geometry"/>
                </mxCell>
                <mxCell id="h-mfdgKE4E6g7ha8phpf-1" value="" style="aspect=fixed;html=1;points=[];align=center;image;fontSize=12;image=img/lib/azure2/networking/Virtual_Networks.svg;" parent="1" vertex="1">
                    <mxGeometry x="610" y="430" width="33.5" height="20" as="geometry"/>
                </mxCell>
                <mxCell id="2" value="Zone 1" style="rounded=0;whiteSpace=wrap;html=1;align=center;verticalAlign=top;" parent="1" vertex="1">
                    <mxGeometry x="80" y="50" width="170" height="370" as="geometry"/>
                </mxCell>
                <mxCell id="3" value="Zone 2" style="rounded=0;whiteSpace=wrap;html=1;align=center;verticalAlign=top;" parent="1" vertex="1">
                    <mxGeometry x="275" y="50" width="165" height="370" as="geometry"/>
                </mxCell>
                <mxCell id="4" value="Zone 2" style="rounded=0;whiteSpace=wrap;html=1;align=center;verticalAlign=top;" parent="1" vertex="1">
                    <mxGeometry x="465" y="50" width="165" height="370" as="geometry"/>
                </mxCell>
                <mxCell id="52" value="" style="rounded=0;whiteSpace=wrap;html=1;align=left;verticalAlign=top;" parent="1" vertex="1">
                    <mxGeometry x="90" y="90" width="530" height="120" as="geometry"/>
                </mxCell>
                <mxCell id="5" value="Ingress" style="rounded=0;whiteSpace=wrap;html=1;align=left;verticalAlign=top;" parent="1" vertex="1">
                    <mxGeometry x="100" y="100" width="130" height="100" as="geometry"/>
                </mxCell>
                <mxCell id="8" value="VPN&lt;br&gt;server" style="aspect=fixed;html=1;points=[];align=center;image;fontSize=12;image=img/lib/azure2/networking/Virtual_Network_Gateways.svg;labelPosition=center;verticalLabelPosition=bottom;verticalAlign=top;" parent="1" vertex="1">
                    <mxGeometry x="120" y="119.99999999999997" width="30" height="39.81" as="geometry"/>
                </mxCell>
                <mxCell id="53" value="" style="rounded=0;whiteSpace=wrap;html=1;align=left;verticalAlign=top;" parent="1" vertex="1">
                    <mxGeometry x="90" y="220" width="530" height="90" as="geometry"/>
                </mxCell>
                <mxCell id="11" value="Bastion subnet" style="rounded=0;whiteSpace=wrap;html=1;align=left;verticalAlign=top;" parent="1" vertex="1">
                    <mxGeometry x="97.5" y="230" width="130" height="70" as="geometry"/>
                </mxCell>
                <mxCell id="12" value="Bastion subnet" style="rounded=0;whiteSpace=wrap;html=1;align=left;verticalAlign=top;" parent="1" vertex="1">
                    <mxGeometry x="292.5" y="230" width="130" height="70" as="geometry"/>
                </mxCell>
                <mxCell id="13" value="Bastion subnet" style="rounded=0;whiteSpace=wrap;html=1;align=left;verticalAlign=top;" parent="1" vertex="1">
                    <mxGeometry x="480" y="230" width="130" height="70" as="geometry"/>
                </mxCell>
                <mxCell id="17" value="Bastion" style="aspect=fixed;html=1;points=[];align=right;image;fontSize=12;image=img/lib/azure2/networking/Front_Doors.svg;labelPosition=left;verticalLabelPosition=middle;verticalAlign=middle;" parent="1" vertex="1">
                    <mxGeometry x="162" y="247.65" width="48" height="42.35" as="geometry"/>
                </mxCell>
                <mxCell id="18" value="Bastion" style="aspect=fixed;html=1;points=[];align=right;image;fontSize=12;image=img/lib/azure2/networking/Front_Doors.svg;labelPosition=left;verticalLabelPosition=middle;verticalAlign=middle;" parent="1" vertex="1">
                    <mxGeometry x="362" y="247.65" width="48" height="42.35" as="geometry"/>
                </mxCell>
                <mxCell id="19" value="Bastion" style="aspect=fixed;html=1;points=[];align=right;image;fontSize=12;image=img/lib/azure2/networking/Front_Doors.svg;labelPosition=left;verticalLabelPosition=middle;verticalAlign=middle;" parent="1" vertex="1">
                    <mxGeometry x="552" y="247.64999999999998" width="48" height="42.35" as="geometry"/>
                </mxCell>
                <mxCell id="54" value="" style="rounded=0;whiteSpace=wrap;html=1;align=left;verticalAlign=top;" parent="1" vertex="1">
                    <mxGeometry x="90" y="320" width="530" height="90" as="geometry"/>
                </mxCell>
                <mxCell id="20" value="Egress subnet" style="rounded=0;whiteSpace=wrap;html=1;align=left;verticalAlign=top;" parent="1" vertex="1">
                    <mxGeometry x="98.75" y="330" width="130" height="70" as="geometry"/>
                </mxCell>
                <mxCell id="21" value="Egress subnet" style="rounded=0;whiteSpace=wrap;html=1;align=left;verticalAlign=top;" parent="1" vertex="1">
                    <mxGeometry x="293.75" y="330" width="130" height="70" as="geometry"/>
                </mxCell>
                <mxCell id="22" value="Egress subnet" style="rounded=0;whiteSpace=wrap;html=1;align=left;verticalAlign=top;" parent="1" vertex="1">
                    <mxGeometry x="481.25" y="330" width="130" height="70" as="geometry"/>
                </mxCell>
                <mxCell id="26" value="Proxy" style="pointerEvents=1;shadow=0;dashed=0;html=1;strokeColor=none;fillColor=#4495D1;labelPosition=left;verticalLabelPosition=middle;verticalAlign=middle;align=right;outlineConnect=0;shape=mxgraph.veeam.2d.proxy;" parent="1" vertex="1">
                    <mxGeometry x="170" y="350" width="40" height="37.4" as="geometry"/>
                </mxCell>
                <mxCell id="27" value="Proxy" style="pointerEvents=1;shadow=0;dashed=0;html=1;strokeColor=none;fillColor=#4495D1;labelPosition=left;verticalLabelPosition=middle;verticalAlign=middle;align=right;outlineConnect=0;shape=mxgraph.veeam.2d.proxy;" parent="1" vertex="1">
                    <mxGeometry x="366" y="350" width="40" height="37.4" as="geometry"/>
                </mxCell>
                <mxCell id="28" value="Proxy" style="pointerEvents=1;shadow=0;dashed=0;html=1;strokeColor=none;fillColor=#4495D1;labelPosition=left;verticalLabelPosition=middle;verticalAlign=middle;align=right;outlineConnect=0;shape=mxgraph.veeam.2d.proxy;" parent="1" vertex="1">
                    <mxGeometry x="560" y="350" width="40" height="37.4" as="geometry"/>
                </mxCell>
                <mxCell id="55" value="Development VNet" style="rounded=0;whiteSpace=wrap;html=1;verticalAlign=top;align=left;dashed=1;" parent="1" vertex="1">
                    <mxGeometry x="60" y="470" width="590" height="320" as="geometry"/>
                </mxCell>
                <mxCell id="56" value="" style="aspect=fixed;html=1;points=[];align=center;image;fontSize=12;image=img/lib/azure2/networking/Virtual_Networks.svg;" parent="1" vertex="1">
                    <mxGeometry x="610" y="780" width="33.5" height="20" as="geometry"/>
                </mxCell>
                <mxCell id="57" value="Zone 1" style="rounded=0;whiteSpace=wrap;html=1;align=center;verticalAlign=top;" parent="1" vertex="1">
                    <mxGeometry x="80" y="500" width="170" height="270" as="geometry"/>
                </mxCell>
                <mxCell id="58" value="Zone 2" style="rounded=0;whiteSpace=wrap;html=1;align=center;verticalAlign=top;" parent="1" vertex="1">
                    <mxGeometry x="275" y="500" width="165" height="270" as="geometry"/>
                </mxCell>
                <mxCell id="59" value="Zone 2" style="rounded=0;whiteSpace=wrap;html=1;align=center;verticalAlign=top;" parent="1" vertex="1">
                    <mxGeometry x="465" y="500" width="165" height="270" as="geometry"/>
                </mxCell>
                <mxCell id="60" value="" style="rounded=0;whiteSpace=wrap;html=1;align=left;verticalAlign=top;" parent="1" vertex="1">
                    <mxGeometry x="90" y="529.9" width="530" height="110.1" as="geometry"/>
                </mxCell>
                <mxCell id="61" value="Worker subnet" style="rounded=0;whiteSpace=wrap;html=1;align=left;verticalAlign=top;" parent="1" vertex="1">
                    <mxGeometry x="100" y="540" width="130" height="80" as="geometry"/>
                </mxCell>
                <mxCell id="74" value="" style="rounded=0;whiteSpace=wrap;html=1;align=left;verticalAlign=top;" parent="1" vertex="1">
                    <mxGeometry x="90" y="660" width="530" height="90" as="geometry"/>
                </mxCell>
                <mxCell id="75" value="VPE subnet" style="rounded=0;whiteSpace=wrap;html=1;align=left;verticalAlign=top;" parent="1" vertex="1">
                    <mxGeometry x="98.75" y="670" width="130" height="70" as="geometry"/>
                </mxCell>
                <mxCell id="76" value="VPE subnet" style="rounded=0;whiteSpace=wrap;html=1;align=left;verticalAlign=top;" parent="1" vertex="1">
                    <mxGeometry x="293.75" y="670" width="130" height="70" as="geometry"/>
                </mxCell>
                <mxCell id="77" value="VPE subnet" style="rounded=0;whiteSpace=wrap;html=1;align=left;verticalAlign=top;" parent="1" vertex="1">
                    <mxGeometry x="481.25" y="670" width="130" height="70" as="geometry"/>
                </mxCell>
                <mxCell id="81" value="" style="sketch=0;aspect=fixed;html=1;points=[];align=center;image;fontSize=12;image=img/lib/mscae/OpenShift.svg;" parent="1" vertex="1">
                    <mxGeometry x="110" y="570" width="50" height="46" as="geometry"/>
                </mxCell>
                <mxCell id="82" value="" style="sketch=0;aspect=fixed;html=1;points=[];align=center;image;fontSize=12;image=img/lib/mscae/OpenShift.svg;" parent="1" vertex="1">
                    <mxGeometry x="170" y="561.95" width="50" height="46" as="geometry"/>
                </mxCell>
                <mxCell id="83" value="Worker subnet" style="rounded=0;whiteSpace=wrap;html=1;align=left;verticalAlign=top;" parent="1" vertex="1">
                    <mxGeometry x="292.5" y="544.95" width="130" height="80" as="geometry"/>
                </mxCell>
                <mxCell id="84" value="" style="sketch=0;aspect=fixed;html=1;points=[];align=center;image;fontSize=12;image=img/lib/mscae/OpenShift.svg;" parent="1" vertex="1">
                    <mxGeometry x="302.5" y="574.95" width="50" height="46" as="geometry"/>
                </mxCell>
                <mxCell id="85" value="" style="sketch=0;aspect=fixed;html=1;points=[];align=center;image;fontSize=12;image=img/lib/mscae/OpenShift.svg;" parent="1" vertex="1">
                    <mxGeometry x="362.5" y="566.9000000000001" width="50" height="46" as="geometry"/>
                </mxCell>
                <mxCell id="86" value="Worker subnet" style="rounded=0;whiteSpace=wrap;html=1;align=left;verticalAlign=top;" parent="1" vertex="1">
                    <mxGeometry x="480" y="544.95" width="130" height="80" as="geometry"/>
                </mxCell>
                <mxCell id="87" value="" style="sketch=0;aspect=fixed;html=1;points=[];align=center;image;fontSize=12;image=img/lib/mscae/OpenShift.svg;" parent="1" vertex="1">
                    <mxGeometry x="490" y="574.95" width="50" height="46" as="geometry"/>
                </mxCell>
                <mxCell id="88" value="" style="sketch=0;aspect=fixed;html=1;points=[];align=center;image;fontSize=12;image=img/lib/mscae/OpenShift.svg;" parent="1" vertex="1">
                    <mxGeometry x="550" y="566.9000000000001" width="50" height="46" as="geometry"/>
                </mxCell>
                <mxCell id="89" value="" style="aspect=fixed;html=1;points=[];align=center;image;fontSize=12;image=img/lib/azure2/networking/Private_Endpoint.svg;" parent="1" vertex="1">
                    <mxGeometry x="170" y="688.5" width="44" height="40.34" as="geometry"/>
                </mxCell>
                <mxCell id="90" value="" style="aspect=fixed;html=1;points=[];align=center;image;fontSize=12;image=img/lib/azure2/networking/Private_Endpoint.svg;" parent="1" vertex="1">
                    <mxGeometry x="362.5" y="688.5" width="44" height="40.34" as="geometry"/>
                </mxCell>
                <mxCell id="91" value="" style="aspect=fixed;html=1;points=[];align=center;image;fontSize=12;image=img/lib/azure2/networking/Private_Endpoint.svg;" parent="1" vertex="1">
                    <mxGeometry x="553" y="688.5" width="44" height="40.34" as="geometry"/>
                </mxCell>
                <mxCell id="92" value="Production VNet" style="rounded=0;whiteSpace=wrap;html=1;verticalAlign=top;align=left;dashed=1;" parent="1" vertex="1">
                    <mxGeometry x="60" y="820" width="590" height="330" as="geometry"/>
                </mxCell>
                <mxCell id="93" value="" style="aspect=fixed;html=1;points=[];align=center;image;fontSize=12;image=img/lib/azure2/networking/Virtual_Networks.svg;" parent="1" vertex="1">
                    <mxGeometry x="616.5" y="1140" width="33.5" height="20" as="geometry"/>
                </mxCell>
                <mxCell id="94" value="Zone 1" style="rounded=0;whiteSpace=wrap;html=1;align=center;verticalAlign=top;" parent="1" vertex="1">
                    <mxGeometry x="80" y="850" width="170" height="270" as="geometry"/>
                </mxCell>
                <mxCell id="95" value="Zone 2" style="rounded=0;whiteSpace=wrap;html=1;align=center;verticalAlign=top;" parent="1" vertex="1">
                    <mxGeometry x="275" y="850" width="165" height="270" as="geometry"/>
                </mxCell>
                <mxCell id="96" value="Zone 2" style="rounded=0;whiteSpace=wrap;html=1;align=center;verticalAlign=top;" parent="1" vertex="1">
                    <mxGeometry x="465" y="850" width="165" height="270" as="geometry"/>
                </mxCell>
                <mxCell id="97" value="" style="rounded=0;whiteSpace=wrap;html=1;align=left;verticalAlign=top;" parent="1" vertex="1">
                    <mxGeometry x="90" y="879.9" width="530" height="110.1" as="geometry"/>
                </mxCell>
                <mxCell id="98" value="Worker subnet" style="rounded=0;whiteSpace=wrap;html=1;align=left;verticalAlign=top;" parent="1" vertex="1">
                    <mxGeometry x="100" y="890" width="130" height="80" as="geometry"/>
                </mxCell>
                <mxCell id="99" value="" style="rounded=0;whiteSpace=wrap;html=1;align=left;verticalAlign=top;" parent="1" vertex="1">
                    <mxGeometry x="90" y="1010" width="530" height="90" as="geometry"/>
                </mxCell>
                <mxCell id="100" value="VPE subnet" style="rounded=0;whiteSpace=wrap;html=1;align=left;verticalAlign=top;" parent="1" vertex="1">
                    <mxGeometry x="98.75" y="1020" width="130" height="70" as="geometry"/>
                </mxCell>
                <mxCell id="101" value="VPE subnet" style="rounded=0;whiteSpace=wrap;html=1;align=left;verticalAlign=top;" parent="1" vertex="1">
                    <mxGeometry x="293.75" y="1020" width="130" height="70" as="geometry"/>
                </mxCell>
                <mxCell id="102" value="VPE subnet" style="rounded=0;whiteSpace=wrap;html=1;align=left;verticalAlign=top;" parent="1" vertex="1">
                    <mxGeometry x="481.25" y="1020" width="130" height="70" as="geometry"/>
                </mxCell>
                <mxCell id="103" value="" style="sketch=0;aspect=fixed;html=1;points=[];align=center;image;fontSize=12;image=img/lib/mscae/OpenShift.svg;" parent="1" vertex="1">
                    <mxGeometry x="110" y="920" width="50" height="46" as="geometry"/>
                </mxCell>
                <mxCell id="104" value="" style="sketch=0;aspect=fixed;html=1;points=[];align=center;image;fontSize=12;image=img/lib/mscae/OpenShift.svg;" parent="1" vertex="1">
                    <mxGeometry x="170" y="911.95" width="50" height="46" as="geometry"/>
                </mxCell>
                <mxCell id="105" value="Worker subnet" style="rounded=0;whiteSpace=wrap;html=1;align=left;verticalAlign=top;" parent="1" vertex="1">
                    <mxGeometry x="292.5" y="894.95" width="130" height="80" as="geometry"/>
                </mxCell>
                <mxCell id="106" value="" style="sketch=0;aspect=fixed;html=1;points=[];align=center;image;fontSize=12;image=img/lib/mscae/OpenShift.svg;" parent="1" vertex="1">
                    <mxGeometry x="302.5" y="924.95" width="50" height="46" as="geometry"/>
                </mxCell>
                <mxCell id="107" value="" style="sketch=0;aspect=fixed;html=1;points=[];align=center;image;fontSize=12;image=img/lib/mscae/OpenShift.svg;" parent="1" vertex="1">
                    <mxGeometry x="362.5" y="916.9000000000001" width="50" height="46" as="geometry"/>
                </mxCell>
                <mxCell id="108" value="Worker subnet" style="rounded=0;whiteSpace=wrap;html=1;align=left;verticalAlign=top;" parent="1" vertex="1">
                    <mxGeometry x="480" y="894.95" width="130" height="80" as="geometry"/>
                </mxCell>
                <mxCell id="109" value="" style="sketch=0;aspect=fixed;html=1;points=[];align=center;image;fontSize=12;image=img/lib/mscae/OpenShift.svg;" parent="1" vertex="1">
                    <mxGeometry x="490" y="924.95" width="50" height="46" as="geometry"/>
                </mxCell>
                <mxCell id="110" value="" style="sketch=0;aspect=fixed;html=1;points=[];align=center;image;fontSize=12;image=img/lib/mscae/OpenShift.svg;" parent="1" vertex="1">
                    <mxGeometry x="550" y="916.9000000000001" width="50" height="46" as="geometry"/>
                </mxCell>
                <mxCell id="111" value="" style="aspect=fixed;html=1;points=[];align=center;image;fontSize=12;image=img/lib/azure2/networking/Private_Endpoint.svg;" parent="1" vertex="1">
                    <mxGeometry x="170" y="1038.5" width="44" height="40.34" as="geometry"/>
                </mxCell>
                <mxCell id="112" value="" style="aspect=fixed;html=1;points=[];align=center;image;fontSize=12;image=img/lib/azure2/networking/Private_Endpoint.svg;" parent="1" vertex="1">
                    <mxGeometry x="362.5" y="1038.5" width="44" height="40.34" as="geometry"/>
                </mxCell>
                <mxCell id="113" value="" style="aspect=fixed;html=1;points=[];align=center;image;fontSize=12;image=img/lib/azure2/networking/Private_Endpoint.svg;" parent="1" vertex="1">
                    <mxGeometry x="553" y="1038.5" width="44" height="40.34" as="geometry"/>
                </mxCell>
                <mxCell id="114" value="Cloud services" style="rounded=0;whiteSpace=wrap;html=1;align=left;verticalAlign=top;" parent="1" vertex="1">
                    <mxGeometry x="730" y="544.95" width="120" height="535.05" as="geometry"/>
                </mxCell>
                <mxCell id="115" value="Montoring" style="aspect=fixed;html=1;points=[];align=center;image;fontSize=12;image=img/lib/azure2/management_governance/Monitor.svg;" parent="1" vertex="1">
                    <mxGeometry x="758" y="600" width="64" height="64" as="geometry"/>
                </mxCell>
                <mxCell id="116" value="Log Analytics" style="aspect=fixed;html=1;points=[];align=center;image;fontSize=12;image=img/lib/azure2/analytics/Log_Analytics_Workspaces.svg;" parent="1" vertex="1">
                    <mxGeometry x="758" y="710" width="64" height="64" as="geometry"/>
                </mxCell>
                <mxCell id="118" value="Blob Storage" style="aspect=fixed;html=1;points=[];align=center;image;fontSize=12;image=img/lib/azure2/general/Blob_Block.svg;" parent="1" vertex="1">
                    <mxGeometry x="758" y="834" width="65" height="52" as="geometry"/>
                </mxCell>
                <mxCell id="119" value="Key Vault" style="aspect=fixed;html=1;points=[];align=center;image;fontSize=12;image=img/lib/azure2/security/Key_Vaults.svg;" parent="1" vertex="1">
                    <mxGeometry x="756" y="954" width="68" height="68" as="geometry"/>
                </mxCell>
                <mxCell id="121" value="" style="endArrow=oval;startArrow=oval;html=1;rounded=0;exitX=1;exitY=0.5;exitDx=0;exitDy=0;startFill=1;endFill=1;entryX=0;entryY=0.959;entryDx=0;entryDy=0;entryPerimeter=0;" parent="1" target="114" edge="1">
                    <mxGeometry width="50" height="50" relative="1" as="geometry">
                        <mxPoint x="620" y="1058.17" as="sourcePoint"/>
                        <mxPoint x="700" y="1058.17" as="targetPoint"/>
                    </mxGeometry>
                </mxCell>
                <mxCell id="122" value="" style="aspect=fixed;html=1;points=[];align=center;image;fontSize=12;image=img/lib/azure2/other/Peering_Service.svg;" parent="1" vertex="1">
                    <mxGeometry x="870" y="481.19" width="48" height="48.71" as="geometry"/>
                </mxCell>
                <mxCell id="123" value="" style="endArrow=classic;startArrow=classic;html=1;rounded=0;entryX=1;entryY=0.5;entryDx=0;entryDy=0;" parent="1" source="122" target="h-mfdgKE4E6g7ha8phpf-3" edge="1">
                    <mxGeometry width="50" height="50" relative="1" as="geometry">
                        <mxPoint x="630" y="590" as="sourcePoint"/>
                        <mxPoint x="680" y="540" as="targetPoint"/>
                        <Array as="points">
                            <mxPoint x="894" y="225"/>
                        </Array>
                    </mxGeometry>
                </mxCell>
                <mxCell id="125" value="" style="endArrow=classic;startArrow=classic;html=1;rounded=0;exitX=1;exitY=0.913;exitDx=0;exitDy=0;exitPerimeter=0;" parent="1" source="92" target="122" edge="1">
                    <mxGeometry width="50" height="50" relative="1" as="geometry">
                        <mxPoint x="630" y="840" as="sourcePoint"/>
                        <mxPoint x="680" y="790" as="targetPoint"/>
                        <Array as="points">
                            <mxPoint x="894" y="1121"/>
                        </Array>
                    </mxGeometry>
                </mxCell>
                <mxCell id="126" value="NAT Gateway" style="aspect=fixed;html=1;points=[];align=center;image;fontSize=12;image=img/lib/azure2/networking/NAT.svg;labelPosition=center;verticalLabelPosition=top;verticalAlign=bottom;" parent="1" vertex="1">
                    <mxGeometry x="10" y="220" width="48" height="48" as="geometry"/>
                </mxCell>
                <mxCell id="127" value="" style="endArrow=classic;html=1;rounded=0;exitX=0;exitY=0.5;exitDx=0;exitDy=0;" parent="1" source="54" target="126" edge="1">
                    <mxGeometry width="50" height="50" relative="1" as="geometry">
                        <mxPoint x="170" y="460" as="sourcePoint"/>
                        <mxPoint x="220" y="410" as="targetPoint"/>
                    </mxGeometry>
                </mxCell>
                <mxCell id="128" value="Public internet" style="rounded=0;whiteSpace=wrap;html=1;align=left;verticalAlign=top;" parent="1" vertex="1">
                    <mxGeometry x="-190" y="40" width="120" height="220" as="geometry"/>
                </mxCell>
                <mxCell id="129" value="Remote employee" style="aspect=fixed;perimeter=ellipsePerimeter;html=1;align=center;shadow=0;dashed=0;fontColor=#000000;labelBackgroundColor=#ffffff;fontSize=12;spacingTop=3;image;image=img/lib/ibm/users/user.svg;" parent="1" vertex="1">
                    <mxGeometry x="-160" y="109.85" width="60" height="60" as="geometry"/>
                </mxCell>
                <mxCell id="130" value="" style="endArrow=classic;html=1;rounded=0;fontColor=#000000;startArrow=classic;startFill=1;" parent="1" source="129" target="8" edge="1">
                    <mxGeometry width="50" height="50" relative="1" as="geometry">
                        <mxPoint x="10" y="380" as="sourcePoint"/>
                        <mxPoint x="60" y="330" as="targetPoint"/>
                    </mxGeometry>
                </mxCell>
                <mxCell id="131" value="Public internet" style="rounded=0;whiteSpace=wrap;html=1;align=left;verticalAlign=top;" parent="1" vertex="1">
                    <mxGeometry x="-190" y="320" width="120" height="280" as="geometry"/>
                </mxCell>
                <mxCell id="132" value="User" style="aspect=fixed;perimeter=ellipsePerimeter;html=1;align=center;shadow=0;dashed=0;fontColor=#000000;labelBackgroundColor=#ffffff;fontSize=12;spacingTop=3;image;image=img/lib/ibm/users/user.svg;" parent="1" vertex="1">
                    <mxGeometry x="-160" y="380" width="60" height="60" as="geometry"/>
                </mxCell>
                <mxCell id="133" value="VPN&lt;br&gt;gateway" style="aspect=fixed;html=1;points=[];align=center;image;fontSize=12;image=img/lib/azure2/networking/Virtual_Network_Gateways.svg;labelPosition=center;verticalLabelPosition=bottom;verticalAlign=top;" parent="1" vertex="1">
                    <mxGeometry x="184" y="119.99999999999997" width="30" height="39.81" as="geometry"/>
                </mxCell>
                <mxCell id="135" value="Ingress" style="rounded=0;whiteSpace=wrap;html=1;align=left;verticalAlign=top;" parent="1" vertex="1">
                    <mxGeometry x="293.75" y="99.95" width="130" height="100" as="geometry"/>
                </mxCell>
                <mxCell id="136" value="VPN&lt;br&gt;server" style="aspect=fixed;html=1;points=[];align=center;image;fontSize=12;image=img/lib/azure2/networking/Virtual_Network_Gateways.svg;labelPosition=center;verticalLabelPosition=bottom;verticalAlign=top;" parent="1" vertex="1">
                    <mxGeometry x="313.75" y="119.94999999999997" width="30" height="39.81" as="geometry"/>
                </mxCell>
                <mxCell id="137" value="VPN&lt;br&gt;gateway" style="aspect=fixed;html=1;points=[];align=center;image;fontSize=12;image=img/lib/azure2/networking/Virtual_Network_Gateways.svg;labelPosition=center;verticalLabelPosition=bottom;verticalAlign=top;" parent="1" vertex="1">
                    <mxGeometry x="377.75" y="119.94999999999997" width="30" height="39.81" as="geometry"/>
                </mxCell>
                <mxCell id="138" value="Ingress" style="rounded=0;whiteSpace=wrap;html=1;align=left;verticalAlign=top;" parent="1" vertex="1">
                    <mxGeometry x="480" y="100" width="130" height="100" as="geometry"/>
                </mxCell>
                <mxCell id="139" value="VPN&lt;br&gt;server" style="aspect=fixed;html=1;points=[];align=center;image;fontSize=12;image=img/lib/azure2/networking/Virtual_Network_Gateways.svg;labelPosition=center;verticalLabelPosition=bottom;verticalAlign=top;" parent="1" vertex="1">
                    <mxGeometry x="500" y="119.99999999999997" width="30" height="39.81" as="geometry"/>
                </mxCell>
                <mxCell id="140" value="VPN&lt;br&gt;gateway" style="aspect=fixed;html=1;points=[];align=center;image;fontSize=12;image=img/lib/azure2/networking/Virtual_Network_Gateways.svg;labelPosition=center;verticalLabelPosition=bottom;verticalAlign=top;" parent="1" vertex="1">
                    <mxGeometry x="564" y="119.99999999999997" width="30" height="39.81" as="geometry"/>
                </mxCell>
                <mxCell id="141" value="Public internet" style="rounded=0;whiteSpace=wrap;html=1;align=left;verticalAlign=top;" parent="1" vertex="1">
                    <mxGeometry x="1010" y="-30" width="120" height="277.65" as="geometry"/>
                </mxCell>
                <mxCell id="142" value="Remote&lt;br&gt;employee" style="aspect=fixed;perimeter=ellipsePerimeter;html=1;align=center;shadow=0;dashed=0;fontColor=#000000;labelBackgroundColor=#ffffff;fontSize=12;spacingTop=3;image;image=img/lib/ibm/users/user.svg;" parent="1" vertex="1">
                    <mxGeometry x="1040" y="49.85" width="60" height="60" as="geometry"/>
                </mxCell>
                <mxCell id="143" value="" style="endArrow=classic;startArrow=classic;html=1;rounded=0;fontColor=#000000;entryX=-0.008;entryY=0.609;entryDx=0;entryDy=0;entryPerimeter=0;" parent="1" source="140" target="141" edge="1">
                    <mxGeometry width="50" height="50" relative="1" as="geometry">
                        <mxPoint x="780" y="380" as="sourcePoint"/>
                        <mxPoint x="830" y="330" as="targetPoint"/>
                    </mxGeometry>
                </mxCell>
                <mxCell id="144" value="WAN" style="aspect=fixed;html=1;points=[];align=center;image;fontSize=12;image=img/lib/azure2/networking/Virtual_WANs.svg;fontColor=#000000;" parent="1" vertex="1">
                    <mxGeometry x="820" y="10" width="65" height="64" as="geometry"/>
                </mxCell>
                <mxCell id="145" value="" style="endArrow=classic;startArrow=classic;html=1;rounded=0;fontColor=#000000;exitX=1;exitY=0.072;exitDx=0;exitDy=0;exitPerimeter=0;" parent="1" source="h-mfdgKE4E6g7ha8phpf-3" target="144" edge="1">
                    <mxGeometry width="50" height="50" relative="1" as="geometry">
                        <mxPoint x="830" y="380" as="sourcePoint"/>
                        <mxPoint x="880" y="330" as="targetPoint"/>
                    </mxGeometry>
                </mxCell>
                <mxCell id="146" value="" style="endArrow=classic;startArrow=classic;html=1;rounded=0;fontColor=#000000;entryX=0;entryY=0.25;entryDx=0;entryDy=0;" parent="1" source="144" target="141" edge="1">
                    <mxGeometry width="50" height="50" relative="1" as="geometry">
                        <mxPoint x="870" y="380" as="sourcePoint"/>
                        <mxPoint x="920" y="330" as="targetPoint"/>
                    </mxGeometry>
                </mxCell>
                <mxCell id="147" value="Load&lt;br&gt;Balancer" style="aspect=fixed;html=1;points=[];align=center;image;fontSize=12;image=img/lib/azure2/networking/Load_Balancers.svg;fontColor=#000000;labelPosition=center;verticalLabelPosition=top;verticalAlign=bottom;" parent="1" vertex="1">
                    <mxGeometry x="8" y="362" width="52" height="52" as="geometry"/>
                </mxCell>
                <mxCell id="150" value="" style="endArrow=classic;html=1;rounded=0;fontColor=#000000;entryX=0;entryY=0.5;entryDx=0;entryDy=0;" parent="1" source="147" target="97" edge="1">
                    <mxGeometry width="50" height="50" relative="1" as="geometry">
                        <mxPoint x="140" y="420" as="sourcePoint"/>
                        <mxPoint x="190" y="370" as="targetPoint"/>
                        <Array as="points">
                            <mxPoint x="30" y="935"/>
                        </Array>
                    </mxGeometry>
                </mxCell>
                <mxCell id="151" value="" style="endArrow=classic;html=1;rounded=0;fontColor=#000000;exitX=1;exitY=0.25;exitDx=0;exitDy=0;" parent="1" source="131" target="147" edge="1">
                    <mxGeometry width="50" height="50" relative="1" as="geometry">
                        <mxPoint x="-70" y="369" as="sourcePoint"/>
                        <mxPoint x="190" y="380" as="targetPoint"/>
                    </mxGeometry>
                </mxCell>
                <mxCell id="152" value="Private&lt;br&gt;Load&lt;br&gt;Balancer" style="aspect=fixed;html=1;points=[];align=center;image;fontSize=12;image=img/lib/azure2/networking/Load_Balancers.svg;fontColor=#000000;labelPosition=center;verticalLabelPosition=top;verticalAlign=bottom;" parent="1" vertex="1">
                    <mxGeometry x="670.5" y="337.25" width="55.5" height="55.5" as="geometry"/>
                </mxCell>
                <mxCell id="153" value="" style="endArrow=classic;html=1;rounded=0;fontColor=#000000;entryX=1;entryY=0.5;entryDx=0;entryDy=0;" parent="1" source="152" target="22" edge="1">
                    <mxGeometry width="50" height="50" relative="1" as="geometry">
                        <mxPoint x="770" y="430" as="sourcePoint"/>
                        <mxPoint x="820" y="380" as="targetPoint"/>
                    </mxGeometry>
                </mxCell>
                <mxCell id="154" value="" style="endArrow=classic;html=1;rounded=0;fontColor=#000000;exitX=1;exitY=0.25;exitDx=0;exitDy=0;" parent="1" source="59" target="152" edge="1">
                    <mxGeometry width="50" height="50" relative="1" as="geometry">
                        <mxPoint x="770" y="430" as="sourcePoint"/>
                        <mxPoint x="820" y="380" as="targetPoint"/>
                        <Array as="points">
                            <mxPoint x="698" y="530"/>
                        </Array>
                    </mxGeometry>
                </mxCell>
                <mxCell id="155" value="" style="endArrow=classic;html=1;rounded=0;fontColor=#000000;jumpStyle=none;exitX=1;exitY=0.25;exitDx=0;exitDy=0;" parent="1" source="96" target="152" edge="1">
                    <mxGeometry width="50" height="50" relative="1" as="geometry">
                        <mxPoint x="770" y="740" as="sourcePoint"/>
                        <mxPoint x="820" y="690" as="targetPoint"/>
                        <Array as="points">
                            <mxPoint x="698" y="880"/>
                        </Array>
                    </mxGeometry>
                </mxCell>
                <mxCell id="120" value="" style="endArrow=oval;startArrow=oval;html=1;rounded=0;exitX=1;exitY=0.5;exitDx=0;exitDy=0;startFill=1;endFill=1;jumpStyle=arc;" parent="1" source="74" edge="1">
                    <mxGeometry width="50" height="50" relative="1" as="geometry">
                        <mxPoint x="630" y="800" as="sourcePoint"/>
                        <mxPoint x="730" y="705" as="targetPoint"/>
                    </mxGeometry>
                </mxCell>
                <mxCell id="124" value="" style="endArrow=classic;startArrow=classic;html=1;rounded=0;exitX=1.003;exitY=0.106;exitDx=0;exitDy=0;exitPerimeter=0;jumpStyle=arc;" parent="1" source="55" target="122" edge="1">
                    <mxGeometry width="50" height="50" relative="1" as="geometry">
                        <mxPoint x="630" y="590" as="sourcePoint"/>
                        <mxPoint x="680" y="540" as="targetPoint"/>
                    </mxGeometry>
                </mxCell>
            </root>
        </mxGraphModel>
    </diagram>
</mxfile>